<?xml version="1.0" encoding="UTF-8" standalone="no"?>
<svg
   xmlns:dc="http://purl.org/dc/elements/1.1/"
   xmlns:cc="http://creativecommons.org/ns#"
   xmlns:rdf="http://www.w3.org/1999/02/22-rdf-syntax-ns#"
   xmlns:svg="http://www.w3.org/2000/svg"
   xmlns="http://www.w3.org/2000/svg"
   viewBox="0 0 620 813.33331"
   height="813.33331"
   width="620"
   xml:space="preserve"
   id="svg2"
   version="1.1"><metadata
     id="metadata8"><rdf:RDF><cc:Work
         rdf:about=""><dc:format>image/svg+xml</dc:format><dc:type
           rdf:resource="http://purl.org/dc/dcmitype/StillImage" /></cc:Work></rdf:RDF></metadata><defs
     id="defs6"><clipPath
       id="clipPath28"
       clipPathUnits="userSpaceOnUse"><path
         style="clip-rule:evenodd"
         id="path26"
         d="m 7.308,31.7945 c 7.3389,130.4496 139.3758,487.8607 221.2191,568.2274 2.617,1.3663 2.7607,0.8326 4.18,-0.0419 41.4332,-38.2102 167.98,-332.5952 197.7398,-525.7653 0.193,-1.2521 -2.3686,0.1508 -2.1838,-1.093 C 379.2365,118.1211 314.4455,181.3397 261.65,188.3149 209.6847,188.983 92.0789,86.4204 13.8076,29.9324 11.901,28.5562 9.2809,33.0701 7.308,31.7945" /></clipPath><clipPath
       id="clipPath40"
       clipPathUnits="userSpaceOnUse"><path
         style="clip-rule:evenodd"
         id="path38"
         d="m 237.4651,319.2412 c -25.67,-18.6395 -54.4315,-27.3892 -83.2176,-36.0607 -8.9518,-5.3192 -13.1505,-12.6391 -10.4017,-22.8849 6.5021,-14.728 22.4909,-21.0838 49.9306,-17.3373 32.652,4.7466 64.8212,14.192 95.0062,42.9965 22.0119,21.6258 41.6175,45.4428 44.3827,84.6037 0,8.5535 -3.699,15.2569 -11.0954,20.1109 -13.6483,4.419 -24.2561,1.6756 -33.9809,-7.6288 -15.1041,-21.2655 -38.6759,-54.5409 -50.6239,-63.7994" /></clipPath></defs><g
     transform="matrix(1.3333333,0,0,-1.3333333,0,813.33333)"
     id="g10"><path
       id="path12"
       style="fill:#000000;fill-opacity:1;fill-rule:evenodd;stroke:none"
       d="m 431.6834,206.9082 5.7614,-20.5453 5.4017,-20.3712 5.0097,-20.1347 4.5824,-19.8406 4.1245,-19.4862 3.6309,-19.0746 3.5554,-21.3159 -1.6063,-12.1797 -10.4831,-7.3786 -16.9677,-5.0921 -13.5419,12.4566 -4.6746,4.3137 -4.7384,4.3756 -4.8005,4.4263 -4.8569,4.466 -4.9079,4.4883 -4.9572,4.5037 -4.9958,4.5014 -5.0329,4.4847 -5.0641,4.4584 -5.0902,4.4169 -5.1063,4.3622 -5.1194,4.2903 -5.1273,4.2097 -5.1273,4.1131 -5.1171,4.0005 -5.1049,3.8775 -5.0822,3.7395 -5.0517,3.5872 -5.0113,3.422 -4.9641,3.2417 -4.907,3.0518 -4.8359,2.8443 -4.7526,2.6257 -4.6621,2.3947 -4.5564,2.1566 -4.4363,1.9058 -4.2984,1.648 -4.1479,1.3842 -3.9805,1.1183 -3.8021,0.8526 -2.0466,0.3354 -1.6106,-0.0752 -3.3622,-0.5028 -4.0983,-0.9686 -4.7342,-1.4633 -5.2821,-1.9644 -5.7565,-2.4491 -6.168,-2.914 -6.5304,-3.3523 -6.8513,-3.7633 -7.1357,-4.1462 -7.3862,-4.4977 -7.6062,-4.8206 -7.8016,-5.1163 -7.971,-5.3799 -8.1156,-5.6177 -8.2377,-5.8246 -8.3362,-6.0043 -8.4146,-6.1566 -8.4728,-6.283 -8.5104,-6.3782 -8.5261,-6.4469 -8.5226,-6.489 -8.5005,-6.5044 -8.4609,-6.4933 -8.3979,-6.4528 L 91.6838,41.0879 83.4602,34.7924 75.3514,28.614 67.3744,22.5785 59.5451,16.7122 51.8808,11.0421 43.2179,4.731 38.0132,2.0027 27.447,1.3592 l -2.0894,0.6185 -0.2767,0.0814 -0.2704,0.0802 -0.2761,0.0808 -0.2795,0.0828 -1.631,0.481 -0.7988,0.3793 -0.0995,0.0456 -0.0995,0.0457 -0.091,0.0422 -0.0808,0.0366 -0.0952,0.0439 -1.6606,0.7566 -2.444,2.2853 -1.1792,1.1548 -1.1072,1.1418 -1.0404,1.1355 -0.9711,1.1297 -0.9085,1.1313 -0.8439,1.1358 -0.784,1.1483 -0.7195,1.16 -0.6536,1.1678 -0.5868,1.1778 -0.5196,1.1838 -0.4479,1.1803 -0.379,1.1668 -0.3121,1.1488 -0.2514,1.124 -0.089,0.5023 -5.3291,5.9434 0.8691,15.171 1.7756,14.3521 2.4432,15.4519 3.0761,16.4707 3.6785,17.4067 4.2461,18.2569 4.7843,19.0187 5.2883,19.6923 5.7625,20.2745 6.2034,20.7678 6.6143,21.1694 6.9914,21.481 7.3383,21.7009 7.6524,21.8296 7.9356,21.867 8.1862,21.8137 8.4062,21.6669 8.5937,21.4311 8.7503,21.1022 8.8747,20.6836 8.9688,20.1724 9.0307,19.571 9.0623,18.879 9.0624,18.0967 9.0343,17.2236 8.975,16.2635 8.8889,15.2124 8.7752,14.0768 8.6389,12.8546 8.4841,11.5506 8.318,10.1659 4.968,5.3025 4.6417,3.8044 3.841,2.6549 0.1723,0.0527 0.976,0.1854 0.9354,0.0899 0.2531,0.002 0.5959,0.1721 5.8708,-0.0831 6.1489,-1.5117 3.1887,-0.7707 3.6184,-0.9785 0.0111,-0.006 3.0467,-0.8237 3.2791,-1.6733 1.2847,-0.8218 2.6039,-1.6722 6.4332,-6.7356 5.4839,-6.8741 5.5568,-7.88 5.7602,-8.9546 6.0095,-10.0392 6.2665,-11.1008 6.5146,-12.1283 6.7448,-13.1082 6.9497,-14.0381 7.1283,-14.9091 7.2793,-15.7249 7.4013,-16.4795 7.4905,-17.1759 7.5504,-17.809 7.5776,-18.3798 7.575,-18.8898 7.5385,-19.338 7.4704,-19.7212 7.3692,-20.0435 7.2394,-20.3014 7.0725,-20.4985 6.876,-20.6325 6.6461,-20.7043 6.3842,-20.7133" /><path
       id="path14"
       style="fill:#333333;fill-opacity:1;fill-rule:evenodd;stroke:none"
       d="m 145.1458,450.7438 8.9855,18.7152 8.9941,17.9563 8.977,17.1091 8.932,16.1793 8.865,15.1668 8.7801,14.0766 8.6816,12.9115 8.5831,11.6759 8.5016,10.3805 7.4447,7.9367 -4.0357,8.3684 11.4803,-0.1615 5.9332,-1.4585 3.166,-0.7659 3.3647,-0.9102 2.4095,-1.2291 1.0182,-0.6511 1.9576,-1.2569 5.7101,-5.9794 5.1885,-6.5032 5.3691,-7.615 5.6316,-8.754 5.9142,-9.8807 6.194,-10.9718 6.4562,-12.0192 6.696,-13.0136 6.9089,-13.9546 7.092,-14.834 7.247,-15.6555 7.3721,-16.4146 7.4636,-17.1139 7.5254,-17.7494 7.5538,-18.322 7.5518,-18.8325 7.5158,-19.2804 7.4488,-19.664 7.3477,-19.9842 7.2173,-20.2414 7.0512,-20.4358 6.8542,-20.5668 6.6237,-20.635 6.3618,-20.6399 6.0661,-20.583 5.7371,-20.4613 5.3781,-20.2793 4.9845,-20.0353 4.5575,-19.7308 4.0984,-19.3646 3.6053,-18.9386 3.3863,-20.304 -1.1154,-8.4583 -7.3457,-5.1701 -12.4915,-3.7485 -10.8615,9.9909 -4.6703,4.3096 -4.7393,4.3767 -4.8056,4.4308 -4.8662,4.4745 -4.9221,4.502 -4.9748,4.519 -5.0181,4.5221 -5.0605,4.5093 -5.0958,4.4861 -5.1262,4.4484 -5.148,4.3974 -5.1672,4.3302 -5.1804,4.2534 -5.1868,4.1604 -5.1837,4.0536 -5.1792,3.933 -5.1647,3.8007 -5.1438,3.6528 -5.1139,3.4917 -5.0786,3.3162 -5.0335,3.1303 -4.9785,2.9285 -4.9121,2.7136 -4.8402,2.4866 -4.7551,2.2501 -4.6587,2.0018 -4.5485,1.7442 -4.4272,1.4771 -4.2927,1.2059 -4.1494,0.9303 -2.8908,0.4742 -2.6059,-0.1219 -3.9475,-0.5904 -4.5689,-1.0797 -5.1128,-1.5806 -5.5888,-2.0778 -6.0075,-2.5563 -6.3759,-3.0121 -6.7034,-3.4415 -6.9973,-3.8433 -7.2587,-4.2173 -7.4914,-4.5618 -7.6964,-4.8782 -7.8789,-5.1664 -8.0367,-5.4249 -8.1735,-5.6571 -8.2865,-5.8593 -8.3778,-6.0346 -8.4506,-6.183 -8.502,-6.3045 -8.5348,-6.3961 -8.5448,-6.4616 -8.5371,-6.4998 -8.5107,-6.5123 -8.466,-6.4968 L 96.114,52.543 87.7975,46.1568 79.5832,39.8684 71.4889,33.7005 63.5326,27.6809 55.7306,21.8353 48.1008,16.1906 39.8364,10.1701 36.2591,8.2947 28.1812,7.8032 27.1664,8.1031 26.8906,8.1845 26.6162,8.2658 26.3398,8.3469 26.0654,8.4283 24.9106,8.7687 24.533,8.9481 24.3833,9.017 l -0.0921,0.042 -0.0904,0.0416 -0.0921,0.042 -0.0907,0.0419 -0.7203,0.328 -1.6271,1.5214 -1.0675,1.0459 -0.9871,1.0174 -0.9102,0.9935 -0.8359,0.9726 -0.7659,0.9539 -0.6968,0.9382 -0.6335,0.9275 -0.5701,0.9182 -0.5079,0.9082 -0.4491,0.9011 -0.3917,0.8929 -0.3356,0.8839 -0.2826,0.8708 -0.2336,0.8589 -0.1891,0.8456 -0.1471,0.8282 -0.1128,0.8073 -0.0825,0.7886 -0.0607,0.7702 -0.0416,0.7555 -0.0295,0.7375 -0.0216,0.7257 -0.0198,0.7177 -0.019,0.7124 -0.0247,0.7086 -0.0334,0.7147 -0.0445,0.7205 -0.0601,0.7342 -0.0782,0.7486 -0.1004,0.7716 -0.2234,1.4051 1.8434,14.8984 2.4438,15.4581 3.0687,16.4248 3.6599,17.3197 4.219,18.1355 4.7472,18.8711 5.2436,19.5225 5.7101,20.0869 6.1438,20.5647 6.5477,20.9557 6.9194,21.2573 7.2615,21.4713 7.5725,21.5969 7.8505,21.632 8.0992,21.5791 8.3177,21.4358 8.5048,21.204 8.6604,20.8826 8.7862,20.4746 8.8833,19.9749" /><path
       id="path16"
       style="fill:#ed9c08;fill-opacity:1;fill-rule:evenodd;stroke:none"
       d="m 147.5303,453.7171 8.9577,18.657 8.962,17.892 8.9388,17.0371 8.8875,16.098 8.8109,15.0735 8.7112,13.9677 8.5949,12.7814 8.4685,11.52 8.3446,10.1894 9.2418,9.8524 -2.3649,4.9045 4.1941,-0.0595 5.4539,-1.3408 3.117,-0.7535 2.8692,-0.7761 1.8201,-0.9283 0.8388,-0.5369 1.5287,-0.9814 5.2362,-5.4827 4.9974,-6.2638 5.249,-7.4449 5.5488,-8.6252 5.8541,-9.7796 6.1472,-10.8898 6.4191,-11.95 6.6653,-12.9538 6.882,-13.9017 7.0699,-14.7863 7.2269,-15.6118 7.3534,-16.3741 7.4469,-17.0748 7.5092,-17.7117 7.539,-18.286 7.5376,-18.796 7.5017,-19.2446 7.4349,-19.6274 7.3341,-19.9474 7.2037,-20.2034 7.0373,-20.3967 6.8409,-20.5256 6.6098,-20.5918 6.3476,-20.5942 6.0517,-20.5336 5.7229,-20.4089 5.3625,-20.2227 4.9692,-19.9729 4.5416,-19.6622 4.0822,-19.2889 3.589,-18.8547 3.2819,-19.6753 -0.8067,-6.1171 -5.2932,-3.725 -9.4246,-2.8287 -9.0465,8.3211 -4.6672,4.3067 -4.7404,4.3772 -4.8081,4.4343 -4.8728,4.4798 -4.9311,4.5108 -4.9865,4.5295 -5.0334,4.5354 -5.078,4.5252 -5.1168,4.5049 -5.15,4.4688 -5.1755,4.4206 -5.199,4.3571 -5.2155,4.2818 -5.2254,4.1919 -5.2285,4.0884 -5.2282,3.9707 -5.2195,3.8407 -5.2052,3.6964 -5.1829,3.5382 -5.1545,3.3667 -5.1188,3.1833 -5.0737,2.9843 -5.0199,2.7731 -4.9604,2.5484 -4.8894,2.3139 -4.8099,2.0665 -4.7191,1.8093 -4.6179,1.5412 -4.5071,1.266 -4.3877,0.9836 -3.4745,0.5698 -3.2933,-0.1537 -4.352,-0.6514 -4.892,-1.1559 -5.3714,-1.6606 -5.7985,-2.1557 -6.1779,-2.6286 -6.5171,-3.0784 -6.8202,-3.5017 -7.0956,-3.8976 -7.3415,-4.2653 -7.562,-4.6049 -7.7567,-4.9164 -7.9305,-5.2001 -8.0813,-5.4547 -8.2108,-5.6838 -8.3197,-5.8816 -8.4053,-6.0554 -8.4744,-6.2005 -8.5218,-6.3187 -8.5502,-6.4083 -8.5581,-6.4709 -8.5467,-6.5075 -8.5167,-6.5168 -8.4694,-6.4996 L 91.9678,60.4236 83.6541,54.0403 75.4458,47.7564 67.3617,41.5959 59.419,35.587 51.6353,29.755 44.0289,24.1268 36.0303,18.301 33.5588,17.005 27.195,16.6175 c -0.7347,0.2169 -1.4686,0.4337 -2.2033,0.6503 -0.243,0.1123 -0.4865,0.2242 -0.7297,0.3365 -12.0708,11.0324 -8.0399,14.8737 -9.7432,24.7436 l 1.766,14.277 2.4253,15.3371 3.0492,16.3247 3.6425,17.2338 4.2018,18.0621 4.7305,18.8056 5.2273,19.4638 5.6949,20.033 6.1293,20.5155 6.533,20.9092 6.9058,21.2134 7.247,21.4287 7.5572,21.555 7.8361,21.5909 8.0836,21.5379 8.3015,21.3937 8.4872,21.1609 8.6423,20.8386 8.7661,20.4276 8.8611,19.9253" /><path
       id="path18"
       style="fill:#fffa9c;fill-opacity:1;fill-rule:evenodd;stroke:none"
       d="m 13.2503,30.6488 c 7.3389,130.4495 135.2086,490.1564 217.0522,570.5229 2.6169,1.3663 6.9273,-1.463 8.3466,-2.3375 41.4332,-38.2102 167.9803,-332.5952 197.7401,-525.765 0.193,-1.2523 -2.3689,0.1505 -2.1838,-1.0933 C 385.179,116.9756 320.3878,180.1936 267.5923,187.1691 215.627,187.8372 98.0209,85.2746 19.7498,28.7867 17.843,27.4105 15.2229,31.9243 13.2503,30.6488" /><path
       id="path20"
       style="fill:#fcd121;fill-opacity:1;fill-rule:evenodd;stroke:none"
       d="m 7.308,31.7945 c 7.3389,130.4496 139.3758,487.8607 221.2191,568.2274 2.617,1.3663 2.7607,0.8326 4.18,-0.0419 41.4332,-38.2102 167.98,-332.5952 197.7398,-525.7653 0.193,-1.2521 -2.3686,0.1508 -2.1838,-1.093 C 379.2365,118.1211 314.4455,181.3397 261.65,188.3149 209.6847,188.983 92.0789,86.4204 13.8076,29.9324 11.901,28.5562 9.2809,33.0701 7.308,31.7945" /><g
       id="g22"><g
         clip-path="url(#clipPath28)"
         id="g24"><path
           id="path30"
           style="fill:#ffff99;fill-opacity:1;fill-rule:evenodd;stroke:none"
           d="M 411.0358,368.4478 C 283.6684,274.051 138.3508,177.4542 -28.0236,149.7413 c 23.2744,1.048 -7.3497,-137.2941 17.8577,-134.9572 85.3943,7.9186 246.0172,210.3055 347.036,260.3693 42.6515,21.1374 39.9657,-37.6058 70.3905,-19.2237 4.0295,21.6796 -0.2542,90.8393 3.7752,112.5181" /></g></g><path
       id="path32"
       style="fill:#5c3303;fill-opacity:1;fill-rule:evenodd;stroke:none"
       d="m 237.4651,319.2412 c -25.67,-18.6395 -54.4315,-27.3892 -83.2176,-36.0607 -8.9518,-5.3192 -13.1505,-12.6391 -10.4017,-22.8849 6.5021,-14.728 22.4909,-21.0838 49.9306,-17.3373 32.652,4.7466 64.8212,14.192 95.0062,42.9965 22.0119,21.6258 41.6175,45.4428 44.3827,84.6037 0,8.5535 -3.699,15.2569 -11.0954,20.1109 -13.6483,4.419 -24.2561,1.6756 -33.9809,-7.6288 -15.1041,-21.2655 -38.6759,-54.5409 -50.6239,-63.7994" /><g
       id="g34"><g
         clip-path="url(#clipPath40)"
         id="g36"><path
           id="path42"
           style="fill:#000000;fill-opacity:1;fill-rule:evenodd;stroke:none"
           d="m 225.419,236.3272 -1.9392,2.4285 -1.0196,1.3453 -0.9786,1.3669 -0.9374,1.389 -0.894,1.4119 -0.8484,1.4363 -0.8017,1.4601 -0.7534,1.4857 -0.7024,1.5103 -0.6506,1.5366 -0.5967,1.5628 -0.542,1.5902 -0.4841,1.6169 -0.4252,1.6444 -0.3648,1.6718 -0.3036,1.7005 -0.2387,1.728 -0.1743,1.7567 -0.1072,1.7847 -0.0402,1.8139 0.0297,1.8428 0.1001,1.872 0.1718,1.9009 0.244,1.9315 0.3189,1.9616 0.394,1.9919 0.4703,2.0231 0.5477,2.0548 0.6264,2.0871 0.7067,2.1204 0.7875,2.1532 1.1072,2.7864 3.4432,2.3851 2.8491,2.2467 2.8715,2.5203 2.8896,2.776 2.905,3.0112 2.9174,3.2276 2.9282,3.4242 2.9367,3.602 2.9449,3.7587 2.9509,3.8977 2.9565,4.0158 2.9611,4.1159 2.9656,4.1956 2.969,4.257 2.9727,4.2991 2.9747,4.322 2.978,4.3248 2.9801,4.3103 2.9826,4.2755 2.984,4.2228 2.9869,4.1508 2.9889,4.06 2.9911,3.9507 2.9937,3.8228 2.9979,3.6754 3.0016,3.5104 3.0073,3.3273 3.014,3.1246 3.0235,2.9039 3.0345,2.6642 3.05,2.405 3.1329,2.1713 1.2563,0.6279 1.4145,0.3696 1.4465,0.0964 1.4474,-0.1355 1.4403,-0.3339 1.4332,-0.5032 1.4295,-0.6537 1.4264,-0.7894 1.4238,-0.9142 1.4185,-1.0281 1.4088,-1.1327 1.3941,-1.228 1.3742,-1.315 1.3467,-1.3915 1.3128,-1.4604 1.2719,-1.5197 1.2237,-1.5712 1.167,-1.6132 1.103,-1.6467 1.0309,-1.6718 0.9511,-1.6895 0.8625,-1.6982 0.7662,-1.7005 0.6597,-1.6954 0.5451,-1.6858 0.4189,-1.6696 0.2804,-1.6498 0.1275,-1.6251 -0.0439,-1.5959 -0.2378,-1.557 -0.4561,-1.501 -0.2532,-0.515 0.3317,-1.372 0.4754,-2.2584 0.4201,-2.3198 0.3645,-2.3755 0.3098,-2.4276 0.2532,-2.4723 0.1972,-2.5132 0.1404,-2.5478 0.0833,-2.5776 0.0255,-2.6019 -0.0326,-2.6203 -0.0921,-2.6334 -0.1511,-2.6413 -0.2115,-2.6433 -0.2721,-2.6405 -0.3339,-2.6317 -0.3954,-2.6175 -0.4587,-2.598 -0.5221,-2.5727 -0.5868,-2.5424 -0.652,-2.5064 -0.718,-2.4647 -0.7855,-2.418 -0.8538,-2.3649 -0.9224,-2.3077 -0.9935,-2.2439 -1.0653,-2.1753 -1.1389,-2.1005 -1.213,-2.0202 -1.2897,-1.9338 -1.3675,-1.8414 -1.4349,-1.7272 -2.2895,-2.5398 -2.3482,-2.4797 -2.4171,-2.4333 -2.4857,-2.3859 -2.5535,-2.3395 -2.6209,-2.2921 -2.687,-2.245 -2.7535,-2.1977 -2.818,-2.1512 -2.8836,-2.1039 -2.9472,-2.0565 -3.0107,-2.0092 -3.0733,-1.9622 -3.1357,-1.9145 -3.1966,-1.8677 -3.2585,-1.8199 -3.3179,-1.7728 -3.3781,-1.7254 -3.437,-1.6781 -3.4954,-1.6302 -3.5532,-1.5835 -3.611,-1.5355 -3.6675,-1.4882 -3.7242,-1.44 -3.7788,-1.3932 -3.8342,-1.345 -3.8883,-1.298 -3.943,-1.2498 -3.9954,-1.2025 -4.0487,-1.1542 -4.1003,-1.107" /><path
           id="path44"
           style="fill:#ffffff;fill-opacity:1;fill-rule:evenodd;stroke:none"
           d="m 226.2637,238.8453 c -11.1166,13.5703 -15.7966,30.0656 -6.3179,52.9979 31.3988,20.1782 63.4995,92.3017 94.8986,112.4802 9.1976,5.9111 33.4876,-23.2759 26.8911,-34.2119 5.7546,-22.2631 2.7346,-57.5127 -12.2187,-74.5112 -23.5372,-26.7566 -59.008,-45.7923 -103.2531,-56.755" /><path
           id="path46"
           style="fill:#000000;fill-opacity:1;fill-rule:evenodd;stroke:none"
           d="m 174.4432,295.7924 2.2686,-2.0347 0.9646,-0.8475 0.9737,-0.8371 0.9834,-0.8246 0.993,-0.8118 1.0029,-0.7971 1.0145,-0.7824 1.0247,-0.7654 1.0372,-0.7486 1.0485,-0.7302 1.0613,-0.7101 1.0738,-0.6891 1.0871,-0.6675 1.1007,-0.6438 1.1151,-0.6202 1.1291,-0.5939 1.144,-0.5677 1.1594,-0.5398 1.1747,-0.5105 1.1905,-0.4802 1.207,-0.4487 1.2232,-0.4155 1.2393,-0.3813 1.2557,-0.3464 1.2736,-0.3098 1.2903,-0.2722 1.3082,-0.2335 1.325,-0.1928 1.3427,-0.1519 1.3601,-0.1092 1.3779,-0.066 1.535,-0.0235 0.7424,0.1063 0.6171,0.1037 0.6361,0.1199 0.6519,0.1361 0.6682,0.1499 0.682,0.1639 0.6939,0.176 0.7027,0.1871 0.7106,0.197 0.7175,0.2067 0.7206,0.2145 0.7211,0.2217 0.7206,0.2276 0.7174,0.2333 0.7118,0.237 0.7024,0.2404 0.6928,0.2418 0.6812,0.2437 0.6655,0.2435 0.6475,0.2427 0.629,0.2404 0.6066,0.2384 0.5837,0.2341 0.5558,0.2302 0.5284,0.2236 0.4989,0.2189 0.4691,0.212 0.4354,0.2061 0.4028,0.1992 0.3722,0.1951 0.3467,0.1953 0.2424,0.1514 5.6361,3.3063 5.4162,3.4086 5.1471,3.4719 4.8852,3.5286 4.6307,3.577 4.3835,3.6201 4.1431,3.6556 3.9096,3.6853 3.6839,3.7063 3.4648,3.7219 3.2533,3.7301 3.0484,3.7313 2.8516,3.7255 2.6615,3.7129 2.4791,3.6935 2.3029,3.6666 2.1359,3.6326 1.9749,3.5932 1.8216,3.5453 1.6755,3.4906 1.5375,3.4296 1.4066,3.3616 1.2827,3.2865 1.1661,3.2046 1.0585,3.115 0.9567,3.0195 0.8631,2.9168 0.7762,2.8066 0.6981,2.6895 0.6262,2.5659 0.5621,2.4344 0.5757,2.6172 -0.0935,1.1158 -0.1154,0.8331 -0.1593,0.824 -0.2027,0.813 -0.2443,0.7999 -0.2866,0.7872 -0.3268,0.771 -0.3671,0.7537 -0.4054,0.7345 -0.4445,0.7149 -0.4821,0.6919 -0.5193,0.6696 -0.5553,0.6429 -0.5908,0.6162 -0.6262,0.5879 -0.6607,0.5573 -0.6925,0.5241 -0.7254,0.491 -0.7566,0.4541 -0.7869,0.4176 -0.8166,0.3778 -0.8453,0.3365 -0.8717,0.2942 -0.8986,0.25 -0.9229,0.2033 -0.9462,0.1562 -0.968,0.1068 -0.9908,0.0576 -1.0094,0.005 -1.0281,-0.0473 -1.0451,-0.1021 -1.061,-0.1562 -1.9741,-0.3892 -2.031,-0.4906 -2.084,-0.5837 -2.1354,-0.6693 -2.1835,-0.7486 -2.2275,-0.8201 -2.2685,-0.8855 -2.306,-0.9436 -2.3386,-0.9961 -2.3675,-1.0406 -2.3919,-1.0798 -2.4123,-1.1111 -2.4276,-1.137 -2.4389,-1.1551 -2.4451,-1.1668 -2.4478,-1.1727 -2.4437,-1.1715 -2.4361,-1.1628 -2.4236,-1.148 -2.4066,-1.1265 -2.3837,-1.099 -2.3562,-1.063 -2.3235,-1.0216 -2.2864,-0.9731 -2.2428,-0.9185 -2.1943,-0.8563 -2.1402,-0.788 -2.0797,-0.7124 -2.0138,-0.6318 -1.9409,-0.5432 -1.8609,-0.4495 -2.8502,-0.561 -1.8805,-3.4172 -8.2693,-15.0244 -1.379,-2.5044 -1.3782,-2.5053 -2.7564,-5.0077 -1.3791,-2.5041 -4.1346,-7.5127 -1.3791,-2.5041 -1.3785,-2.5053 -2.7561,-5.0077 -1.379,-2.5041 -4.1346,-7.5126 -1.3791,-2.5042 -4.1346,-7.5123 -1.3791,-2.5042 -4.1346,-7.5123" /><path
           id="path48"
           style="fill:#ffffff;fill-opacity:1;fill-rule:evenodd;stroke:none"
           d="m 177.2529,296.2695 c 9.9876,-9.0448 21.1241,-16.4072 35.3333,-16.3964 5.6146,0.7288 16.31,4.691 18.4607,6.1126 61.5733,34.8644 74.8417,82.3501 79.9183,105.8916 -0.4394,7.7037 -7.5478,14.7047 -17.8152,12.9319 -19.6002,-3.3845 -52.1875,-25.0203 -71.788,-28.4048 -14.703,-26.7115 -29.406,-53.4232 -44.1091,-80.1349" /></g></g><path
       id="path50"
       style="fill:none;stroke:#663333;stroke-width:4;stroke-linecap:butt;stroke-linejoin:miter;stroke-miterlimit:10;stroke-dasharray:none;stroke-opacity:1"
       d="m 237.4651,319.2412 c -25.67,-18.6395 -54.4315,-27.3892 -83.2176,-36.0607 -8.9518,-5.3192 -13.1505,-12.6391 -10.4017,-22.8849 6.5021,-14.728 22.4909,-21.0838 49.9306,-17.3373 32.652,4.7466 64.8212,14.192 95.0062,42.9965 22.0119,21.6258 41.6175,45.4428 44.3827,84.6037 0,8.5535 -3.699,15.2569 -11.0954,20.1109 -13.6483,4.419 -24.2561,1.6756 -33.9809,-7.6288 -15.1041,-21.2655 -38.6759,-54.5409 -50.6239,-63.7994 z" /><path
       id="path52"
       style="fill:#ffffff;fill-opacity:1;fill-rule:evenodd;stroke:#1f1917;stroke-width:4;stroke-linecap:butt;stroke-linejoin:miter;stroke-miterlimit:10;stroke-dasharray:none;stroke-opacity:1"
       d="m 159.8868,427.3464 c 17.3018,0 31.4127,-14.5049 31.4127,-32.2901 0,-17.7851 -14.1109,-32.2897 -31.4127,-32.2897 -17.3007,0 -31.4124,14.5046 -31.4124,32.2897 0,17.7852 14.1117,32.2901 31.4124,32.2901 z" /><path
       id="path54"
       style="fill:#ffffff;fill-opacity:1;fill-rule:evenodd;stroke:#1f1917;stroke-width:4;stroke-linecap:butt;stroke-linejoin:miter;stroke-miterlimit:10;stroke-dasharray:none;stroke-opacity:1"
       d="m 264.6074,455.2033 c 17.3024,0 31.4132,-14.5055 31.4132,-32.2898 0,-17.7854 -14.1108,-32.2905 -31.4132,-32.2905 -17.3013,0 -31.4116,14.5051 -31.4116,32.2905 0,17.7843 14.1103,32.2898 31.4116,32.2898 z" /><path
       id="path56"
       style="fill:#000000;fill-opacity:1;fill-rule:evenodd;stroke:none"
       d="m 159.3147,409.354 c 4.2778,0 7.7673,-3.5869 7.7673,-7.9846 0,-4.3974 -3.4895,-7.9838 -7.7673,-7.9838 -4.2783,0 -7.768,3.5864 -7.768,7.9838 0,4.3977 3.4897,7.9846 7.768,7.9846" /><path
       id="path58"
       style="fill:#000000;fill-opacity:1;fill-rule:evenodd;stroke:none"
       d="m 252.1026,435.4563 c 4.2778,0 7.7667,-3.5875 7.7667,-7.9849 0,-4.3977 -3.4889,-7.9847 -7.7667,-7.9847 -4.278,0 -7.768,3.587 -7.768,7.9847 0,4.3974 3.49,7.9849 7.768,7.9849" /><path
       id="path60"
       style="fill:none;stroke:#000000;stroke-width:4;stroke-linecap:butt;stroke-linejoin:miter;stroke-miterlimit:10;stroke-dasharray:none;stroke-opacity:1"
       d="m 136.8978,431.9087 c 22.989,3.3636 39.1343,12.4305 45.2767,29.8335" /><path
       id="path62"
       style="fill:none;stroke:#000000;stroke-width:4;stroke-linecap:butt;stroke-linejoin:miter;stroke-miterlimit:10;stroke-dasharray:none;stroke-opacity:1"
       d="m 246.7551,512.5944 c -9.2781,11.6858 -30.2979,15.3504 -47.1065,1.7419" /></g></svg>